inDegrees=yes
name=ik_Xsens
DataType=double
version=3
OpenSimVersion=4.4-2022-07-23-0e9fedc
endheader
time	pelvis_tilt	pelvis_list	pelvis_rotation	pelvis_tx	pelvis_ty	pelvis_tz	hip_flexion_r	hip_adduction_r	hip_rotation_r	knee_angle_r	knee_angle_r_beta	ankle_angle_r	subtalar_angle_r	mtp_angle_r	hip_flexion_l	hip_adduction_l	hip_rotation_l	knee_angle_l	knee_angle_l_beta	ankle_angle_l	subtalar_angle_l	mtp_angle_l	lumbar_extension	lumbar_bending	lumbar_rotation	arm_flex_r	arm_add_r	arm_rot_r	elbow_flex_r	pro_sup_r	wrist_flex_r	wrist_dev_r	arm_flex_l	arm_add_l	arm_rot_l	elbow_flex_l	pro_sup_l	wrist_flex_l	wrist_dev_l
47.06666666666666	0	0	0	0	0.93	0	0	0	0	0	-1.290109115747162e-40	0	0	0	0	0	0	0	-1.290109115747162e-40	0	0	0	0	0	0	-275.2960171034709	-13.86330760044167	-345.6523153195882	-12.05881554523901	-6.027304769314935	0	0	-277.8340838457284	-9.351539934828624	-321.9952506716367	-16.1746548780169	-25.72414055684527	0	0
47.08333333333334	0	0	0	0	0.93	0	0	0	0	0	-1.290109115747162e-40	0	0	0	0	0	0	0	-1.290109115747162e-40	0	0	0	0	0	0	-275.3876013417488	-13.76634971548202	-345.6538157215318	-12.13141041181301	-6.158647491396557	0	0	-277.8423868965571	-9.2872360667269	-322.0760501932769	-16.19657559357002	-25.69221600347779	0	0
47.1	-1.330056911026048e-26	-7.410830405923093e-17	-4.112063475396139e-26	-1.13001241259069e-25	0.93	1.496379394415529e-23	-8.387479374676578e-36	1.12407076015321e-20	0	0	-2.250768654763314e-17	-3.298364195839713e-20	6.735087869475666e-19	-1.568157739663313e-17	7.948106183675759e-20	2.242372699600631e-29	-2.626444177506254e-20	0	-2.255124663665797e-17	1.955866425676868e-19	-8.462801856091623e-25	-3.158411382582978e-18	-1.330056911026048e-26	5.231635027319455e-27	-4.621266876759295e-24	-275.4492720729921	-13.6448778158962	-345.5657577012395	-12.324739032175	-6.465305621432631	6.363211361759419e-20	-1.825694461688763e-17	-277.8379221056441	-9.20275425935313	-322.1607409978425	-16.23441264262214	-25.62669268688518	-2.711875565829307e-21	-4.065145887442874e-18
47.11666666666667	0	0	0	0	0.93	0	0	0	0	0	0	0	0	0	0	0	0	0	-4.70197740328915e-38	0	0	0	0	0	0	-275.5140958302121	-13.58051213247596	-345.5926000937041	-12.39113947212354	-6.575525229853306	0	0	-277.8670095105405	-9.145856785346428	-322.1858775269892	-16.23958109291754	-25.59938234885135	0	0
47.13333333333333	0	0	0	0	0.93	0	0	0	0	0	0	0	0	0	0	0	0	0	0	0	0	0	0	0	0	-275.5758505961055	-13.50111468005325	-345.5885326584352	-12.51793117964974	-6.774179444884679	0	0	-277.8878011496992	-9.056698527304786	-322.2104317512391	-16.26629950828491	-25.55424800566932	0	0
47.15	1.49781170814846e-12	-2.870076914978892e-12	2.148880640784311e-12	9.006064108130387e-26	0.93	-2.524383250041439e-24	5.852938742556945e-28	2.225011256773782e-22	0	5.063936798171465e-05	8.838237025199437e-07	1.146373861474979e-22	-1.153499432229324e-18	-1.488061596045282e-23	-7.30821681807011e-23	-6.107414297078752e-29	5.820651007098103e-22	5.063936798171465e-05	8.838237025199436e-07	-3.851458433722135e-21	-4.020164400479451e-21	1.606546276896535e-22	1.49781170814846e-12	-2.870076914978892e-12	2.148880640696283e-12	-275.6401388829137	-13.4488242316741	-345.6066766964492	-12.57233025145227	-6.885609230305323	-3.347270181449811e-23	5.883629240546296e-23	-277.9012434093088	-8.986655508515677	-322.226188164038	-16.29055476171212	-25.53862692435057	1.803335134035835e-22	6.319478183924016e-23
47.16666666666666	0	0	0	0	0.93	0	0	0	0	0	0	0	0	0	0	0	0	0	0	0	0	0	0	0	0	-275.7129181468433	-13.39220261348157	-345.631420933979	-12.63518633837801	-7.025075476396522	0	0	-277.9023076909207	-8.905980598439475	-322.2348832549854	-16.3102594893277	-25.50107712618474	0	0
47.18333333333333	0	0	0	0	0.93	0	0	0	0	0	-9.183549615799121e-41	0	0	0	0	0	0	0	-9.183549615799121e-41	0	0	0	0	0	0	-275.7509301225243	-13.31686773645969	-345.6065336095784	-12.78163116691497	-7.292754596674624	0	0	-277.8915449473653	-8.802245832493886	-322.2352437092491	-16.33836053594084	-25.48488694223448	0	0
47.2	0	0	0	0	0.93	0	0	0	0	0	0	0	0	0	0	0	0	0	0	0	0	0	0	0	0	-275.7994456787665	-13.28021036549143	-345.6562040574357	-12.83671963948368	-7.491661387807308	0	0	-277.8988155694191	-8.742325979024905	-322.2663328744511	-16.34493179557547	-25.52512702143562	0	0
47.21666666666667	0	0	0	0	0.93	0	0	0	0	0	0	0	0	0	0	0	0	0	0	0	0	0	0	0	0	-275.8446974156955	-13.24481483190131	-345.7196820094699	-12.89355348094439	-7.654858387439208	0	0	-277.8933708097645	-8.670854365728585	-322.3249990525409	-16.33418099243171	-25.53437521234399	0	0
47.23333333333333	0	0	0	0	0.93	0	0	0	0	0	0	0	0	0	0	0	0	0	0	0	0	0	0	0	0	-275.903504973026	-13.19820277650902	-345.7930469338884	-12.93409340059515	-7.793313735554466	0	0	-277.8916846639119	-8.595253479479821	-322.3796561791214	-16.326775719319	-25.51825258771241	0	0
47.25	0	0	0	0	0.93	0	0	0	0	0	0	0	0	0	0	0	0	0	0	0	0	0	0	0	0	-275.9596529353987	-13.14999521365862	-345.8694164184777	-12.95122583760305	-7.897071334710337	0	0	-277.8955327081064	-8.522392713484551	-322.4185449262457	-16.3271658262361	-25.49563500966961	0	0
47.26666666666667	0	0	0	0	0.93	0	0	0	0	0	0	0	0	0	0	0	0	0	0	0	0	0	0	0	0	-276.0227162973251	-13.07831104808443	-345.9165622867572	-12.97753489102594	-8.110153665658487	0	0	-277.8946165592902	-8.430541114312305	-322.4754351722626	-16.36823017059252	-25.42644065327885	0	0
47.28333333333333	0	0	0	0	0.93	0	0	0	0	0	0	0	0	0	0	0	0	0	0	0	0	0	0	0	0	-276.0884694181081	-13.00487241238278	-345.9391337392633	-13.00429214456715	-8.214654897469297	0	0	-277.9046888160275	-8.35714553043271	-322.5006723691574	-16.37758375025311	-25.39513597838241	0	0
47.3	0	0	0	0	0.93	0	0	0	0	0	0	0	0	0	0	0	0	0	0	0	0	0	0	0	0	-276.1613421682084	-12.91408195539387	-345.9753066333459	-13.00663783400556	-8.298254626858473	0	0	-277.9241856187081	-8.273699350827474	-322.5212068478021	-16.38825298139822	-25.41840177390007	0	0
47.31666666666666	-3.569969262925648e-13	-7.384030836550066e-13	4.278847290085602e-13	-9.557576331678977e-22	0.93	7.159178830559516e-23	-1.669059226019969e-15	2.146450633411125e-17	-1.119920711167034e-14	5.063936635077022e-05	8.838236740322597e-07	-9.027712542313555e-17	-1.084173246250268e-15	-7.998075962241358e-17	5.623573148076777e-15	5.681510050770966e-15	1.316910533034451e-14	4.97861628284962e-05	8.689324633266141e-07	1.00244694409658e-15	9.615939196467997e-18	-4.587119958361153e-16	-5.458410003631832e-13	-6.705909066078229e-13	3.859317037151796e-13	-276.2411998238911	-12.8319337353072	-346.0046188444868	-12.98970038888143	-8.409242830756344	-5.745059658115019e-16	6.805983594745908e-16	-277.9472359661243	-8.180547060934041	-322.5365149261012	-16.40284187439321	-25.4848070183517	-5.695234293591378e-15	2.281989387130584e-14
47.33333333333334	0	0	0	0	0.93	0	0	0	0	0	0	0	0	0	0	0	0	0	0	0	0	0	0	0	0	-276.3135754312598	-12.76305801603537	-346.0313976436572	-12.98059803217603	-8.548165621312549	0	0	-277.9714743322162	-8.107190157381043	-322.5751216230474	-16.42439409898735	-25.50921085727581	0	0
47.35	0	0	0	0	0.93	0	0	0	0	0	0	0	0	0	0	0	0	0	0	0	0	0	0	0	0	-276.367814580745	-12.67592995071913	-346.0315504467787	-13.02471291040059	-8.758979499449991	0	0	-277.9984628334723	-8.042198224233651	-322.6505140507439	-16.47162203103845	-25.45126326167548	0	0
47.36666666666667	-1.196775768893986e-26	1.088902751454886e-18	-2.116558149811356e-26	-2.640213819957507e-19	0.93	-1.264462599419282e-19	1.301294398438838e-33	1.735618716828663e-26	-4.262095997979326e-25	1.991949771765581e-16	3.476608237902886e-18	1.080588967792823e-20	2.287657483536934e-21	1.752662445905155e-18	4.239259019910617e-15	3.675168908240662e-15	-1.345519503067198e-17	1.991949826385799e-16	3.476608295800247e-18	6.688730061309443e-20	5.499711143180402e-20	2.728702595773931e-18	-2.858831484401106e-15	-5.586590622630759e-15	-2.881705391598449e-16	-276.4326308026564	-12.59590740101472	-346.0544869809369	-13.05777585934236	-8.813218275341619	-3.088017759282523e-18	-5.107152433170271e-19	-278.0341256568901	-7.984267086472983	-322.7204532290496	-16.4967864015727	-25.46960711157647	8.793346299078202e-19	-4.785766047935122e-17
47.38333333333333	-2.696900519757095e-29	3.958702702586614e-20	1.276915505111548e-28	-6.946450286391704e-26	0.93	-2.493209065795399e-26	3.232841526892206e-35	-1.769882497592091e-24	2.706099670449984e-31	6.426278466733797e-16	1.121600101458886e-17	-1.074916196774229e-21	2.528271968002983e-23	3.163592516452321e-19	-1.34804935692498e-23	-1.68948983861311e-31	1.097533097843838e-22	6.425699499669041e-16	1.12149584094475e-17	4.915326053508657e-25	2.507222724902318e-17	4.806059289138114e-19	2.425573437653205e-28	-1.580681656572083e-24	-1.825150763049892e-24	-276.5193363080494	-12.52964848136648	-346.0789940875852	-13.05939728493452	-8.869871443704724	-2.09766963141541e-22	-2.938436424058468e-21	-278.070314493514	-7.928697742953607	-322.8089714044982	-16.52509767261402	-25.68157736378443	-4.937032811336958e-22	-1.139748855887403e-23
47.4	0	0	0	0	0.93	0	0	0	0	0	0	0	0	0	0	0	0	0	0	0	0	0	0	0	0	-276.6077686304237	-12.49002698078087	-346.1008720929314	-13.03438098174283	-8.920719402693395	0	0	-278.1121643152105	-7.910325013783042	-322.879219136397	-16.56024555995342	-25.90920471312319	0	0
47.41666666666666	0	0	0	0	0.93	0	0	0	0	0	0	0	0	0	0	0	0	0	0	0	0	0	0	0	0	-276.7060724432079	-12.47748540094946	-346.1333240038389	-12.98883257793525	-8.95852652238181	0	0	-278.1545369895636	-7.92485995772407	-322.9144299836632	-16.60400719755365	-26.00424766812354	0	0
47.43333333333333	0	0	0	0	0.93	0	0	0	0	0	0	0	0	0	0	0	0	0	0	0	0	0	0	0	0	-276.8383653383887	-12.47938184535223	-346.182550617805	-12.8830290796896	-8.901970535100544	0	0	-278.1884267625036	-7.967651408035251	-322.9614381127592	-16.6679572574741	-26.01840172396138	0	0
47.45	0	0	0	0	0.93	0	0	0	0	0	-5.241540515187353e-23	0	0	0	0	0	0	0	-5.241540515187353e-23	0	0	0	0	0	0	-276.908189947725	-12.48526480554934	-346.1805764493434	-12.83285956551831	-8.870552406496847	0	0	-278.1946829857199	-8.023133138128719	-323.0504994528191	-16.72785062452078	-26.01762291688997	0	0
47.46666666666667	1.692071608735261e-12	2.532211216816636e-12	-2.307338041439048e-12	8.549220130585331e-23	0.93	-4.013318275429403e-24	7.625849379146141e-15	-3.380623834907688e-15	0.0004475303235935746	5.112483651969742e-05	-8.782482462631178e-06	-5.292183223934782e-18	-1.392320240444307e-16	-3.825224523524594e-15	-1.031467459574014e-05	-7.976603348312412e-07	-1.547505368966737e-05	5.063936162552572e-05	1.044855632752861e-05	-8.087179490119252e-18	-5.257756925903999e-20	1.735383905787327e-16	-5.012257020344385e-06	-1.305779275415646e-05	1.921141851295113e-05	-276.9987373352854	-12.51690655784986	-346.1419224447091	-12.76999991449162	-8.838573033089952	4.656688632998253e-19	4.077780648375947e-18	-278.2028902630273	-8.156352634715775	-323.1991075891897	-16.77294225855237	-25.93531680657209	-9.066592441549924e-21	1.474722204741303e-20
47.48333333333333	0	0	0	0	0.93	0	0	0	0	0	-3.922168535902583e-41	0	0	0	0	0	0	0	0	0	0	0	0	0	0	-277.0577367964941	-12.56172545414281	-346.0691878866318	-12.74687079055313	-8.831952188195517	0	0	-278.2494894215976	-8.341415553170931	-323.3324695051748	-16.78451744100423	-25.75916738397562	0	0
47.5	-3.737642989764227e-26	1.750527596159892e-22	-5.48266797798908e-26	6.297934047096752e-24	0.93	-1.214368483888893e-24	-9.698524580676619e-35	-1.202889336835022e-22	0	0	-3.020715013964255e-17	-1.340960936970599e-16	1.202969141350057e-17	2.611179260690239e-20	1.601526336866549e-25	8.688572274205469e-25	-2.461764849043961e-14	0	-3.020714964704634e-17	-1.127595837463424e-15	-2.563334198364854e-20	2.911578275710648e-20	1.213840056122679e-17	-2.68722914210886e-14	2.097529016751488e-15	-277.1164995064444	-12.58906560956193	-345.9773075954447	-12.73652748845877	-8.813876869275784	1.041703908108889e-19	-1.207342288941861e-17	-278.3178391043157	-8.554607921869945	-323.4504220059233	-16.75902286354074	-25.57293001020993	-3.82075972570624e-23	3.949280789739688e-18
47.51666666666667	0	0	0	0	0.93	0	0	0	0	0	0	0	0	0	0	0	0	0	0	0	0	0	0	0	0	-277.1624782614069	-12.60586656562012	-345.8902257615294	-12.74107124495412	-8.756646552673605	0	0	-278.4100056356251	-8.772541119608215	-323.5286378610092	-16.70348711400198	-25.46986757921529	0	0
47.53333333333333	0	0	0	0	0.93	0	0	0	0	0	0	0	0	0	0	0	0	0	0	0	0	0	0	0	0	-277.2010164059236	-12.61615605747185	-345.8064616552396	-12.75716501595888	-8.676663830019267	0	0	-278.5117499227724	-9.002736513028054	-323.5348802659267	-16.61044875344656	-25.47624251520338	0	0
